<svg width="40" height="40" viewBox="0 0 40 40" fill="none" xmlns="http://www.w3.org/2000/svg">
<path d="M12.5804 34.5484C12.7085 34.2531 12.7793 33.9275 12.7793 33.5857C12.7793 32.2463 11.6897 31.1566 10.3503 31.1566H10.1833C9.76587 30.3831 9.55451 29.5819 9.55451 28.7693C9.55451 27.9568 9.76578 27.1556 10.1832 26.3822H10.3503C11.6897 26.3822 12.7793 25.2924 12.7793 23.9529C12.7793 22.6577 11.7604 21.5959 10.4819 21.5274L11.2857 16.5108C11.3712 15.9771 11.2134 15.4429 10.8414 15.0065C10.3879 14.4746 9.64915 14.1442 8.91348 14.1442H7.90502V12.5954C7.90502 12.1528 7.54631 11.7941 7.10374 11.7941C6.66116 11.7941 6.30245 12.1528 6.30245 12.5954V14.1442H5.29399C4.55806 14.1442 3.81936 14.4746 3.36584 15.0066C2.99377 15.443 2.8361 15.9772 2.92166 16.5108L3.72552 21.5274C2.44721 21.5961 1.42815 22.6578 1.42815 23.953C1.42815 25.2924 2.51781 26.3822 3.85729 26.3822H3.87225C4.28972 27.1557 4.50099 27.9568 4.50099 28.7693C4.50099 29.5819 4.28981 30.3831 3.87225 31.1566H3.85729C2.51781 31.1566 1.42815 32.2463 1.42815 33.5858C1.42815 33.9275 1.49911 34.2531 1.62696 34.5483C0.680557 34.8804 0 35.783 0 36.8417C0 38.1811 1.08966 39.2707 2.42905 39.2707H11.7782C13.1176 39.2707 14.2072 38.1811 14.2072 36.8414C14.2072 35.783 13.5268 34.8805 12.5804 34.5484ZM5.29399 15.7467H8.91348C9.70337 15.7264 9.7072 16.2332 9.70337 16.2572L8.85944 21.5239H5.34804L4.50411 16.2572C4.5001 16.2332 4.59759 15.7467 5.29399 15.7467ZM3.85729 24.7797C3.40154 24.7797 3.03072 24.4089 3.03072 23.953C3.03072 23.4973 3.40154 23.1265 3.85729 23.1265H10.3503C10.806 23.1265 11.1768 23.4973 11.1768 23.9531C11.1768 24.4089 10.806 24.7797 10.3503 24.7797H3.85729ZM8.41615 31.1567H5.63935C5.94784 30.382 6.10356 29.583 6.10356 28.7694C6.10356 27.9557 5.94784 27.1569 5.63935 26.3823H8.41615C8.10757 27.1569 7.95194 27.9557 7.95194 28.7694C7.95194 29.583 8.10766 30.382 8.41615 31.1567ZM3.85729 32.7592H4.31714C4.32578 32.7594 4.3345 32.7594 4.34296 32.7592H9.71254C9.72118 32.7594 9.72972 32.7594 9.73854 32.7592H10.3503C10.806 32.7592 11.1768 33.1301 11.1768 33.5859C11.1768 34.0416 10.806 34.4124 10.3503 34.4124H3.85729C3.40154 34.4124 3.03072 34.0416 3.03072 33.5858C3.03072 33.13 3.40154 32.7592 3.85729 32.7592ZM11.7782 37.6682H2.42905C1.9733 37.6682 1.60257 37.2973 1.60257 36.8414C1.60257 36.3857 1.9733 36.0148 2.42905 36.0148H11.7782C12.2339 36.0148 12.6046 36.3857 12.6046 36.8416C12.6046 37.2973 12.2339 37.6682 11.7782 37.6682ZM15.3541 14.8788C15.6671 15.1917 15.6671 15.699 15.354 16.012L13.4264 17.9396C13.2699 18.096 13.0648 18.1743 12.8598 18.1743C12.6547 18.1743 12.4497 18.0961 12.2932 17.9396C11.9803 17.6266 11.9803 17.1193 12.2932 16.8064L14.2209 14.8788C14.5339 14.5658 15.0411 14.5658 15.3541 14.8788ZM31.1866 19.0726L35.3803 14.8789C35.6935 14.566 36.2007 14.566 36.5136 14.8789C36.8266 15.1919 36.8266 15.6992 36.5136 16.0121L32.3199 20.2059C32.1634 20.3623 31.9582 20.4406 31.7533 20.4406C31.5481 20.4406 31.3432 20.3624 31.1867 20.2059C30.8736 19.8928 30.8736 19.3855 31.1866 19.0726ZM30.6339 17.2161C30.3209 16.9032 30.3209 16.3959 30.6339 16.0829L32.3234 14.3934C32.6364 14.0805 33.1436 14.0803 33.4567 14.3934C33.7697 14.7063 33.7697 15.2136 33.4567 15.5266L31.7672 17.2161C31.6106 17.3725 31.4056 17.4508 31.2006 17.4508C30.9955 17.4508 30.7904 17.3725 30.6339 17.2161ZM39.1987 0.729248H7.10374C6.66116 0.729248 6.30245 1.08796 6.30245 1.53053V9.30913C6.30245 9.7517 6.66116 10.1104 7.10374 10.1104C7.54631 10.1104 7.90502 9.7517 7.90502 9.30913V2.33182H17.0008V11.4275H11.6887C11.2461 11.4275 10.8874 11.7863 10.8874 12.2288C10.8874 12.6714 11.2461 13.0301 11.6887 13.0301H17.0008V22.1258H14.9888C14.5462 22.1258 14.1875 22.4845 14.1875 22.927C14.1875 23.3696 14.5462 23.7283 14.9888 23.7283H17.0008V32.8241H14.872C14.4294 32.8241 14.0707 33.1828 14.0707 33.6254C14.0707 34.068 14.4294 34.4267 14.872 34.4267H39.1987C39.6413 34.4267 40 34.068 40 33.6254V1.53053C40 1.08805 39.6413 0.729248 39.1987 0.729248ZM27.6991 32.8241H18.6034V23.7284H27.6991V32.8241ZM27.6991 22.1258H18.6034V13.0301H27.6991V22.1258ZM27.6991 11.4275H18.6034V2.33182H27.6991V11.4275ZM38.3974 32.8241H29.3017V23.7284H38.3974V32.8241ZM38.3974 22.1258H29.3017V13.0301H38.3974V22.1258ZM38.3974 11.4275H29.3017V2.33182H38.3974V11.4275ZM26.3675 28.8385C26.6804 29.1515 26.6804 29.6588 26.3674 29.9717L24.6777 31.6613C24.5212 31.8177 24.3161 31.896 24.1112 31.896C23.906 31.896 23.7011 31.8178 23.5446 31.6613C23.2316 31.3483 23.2316 30.841 23.5447 30.5281L25.2344 28.8385C25.5472 28.5256 26.0546 28.5256 26.3675 28.8385ZM26.3675 7.24057C26.6804 7.55351 26.6804 8.06082 26.3675 8.37376L24.6778 10.0634C24.5212 10.2198 24.3161 10.2981 24.1112 10.2981C23.906 10.2981 23.7011 10.2199 23.5446 10.0634C23.2316 9.75046 23.2316 9.24316 23.5447 8.93021L25.2343 7.24057C25.5473 6.92762 26.0546 6.92762 26.3675 7.24057ZM37.0662 17.8684C37.3793 18.1814 37.3793 18.6887 37.0663 19.0016L35.3769 20.6913C35.2204 20.8477 35.0153 20.926 34.8103 20.926C34.6052 20.926 34.4002 20.8478 34.2438 20.6913C33.9307 20.3783 33.9307 19.871 34.2437 19.5581L35.9331 17.8684C36.2459 17.5556 36.7534 17.5556 37.0662 17.8684ZM20.4876 8.44463L24.6813 4.25089C24.9944 3.93786 25.5017 3.93794 25.8146 4.25089C26.1276 4.56384 26.1276 5.07114 25.8146 5.38408L21.6209 9.57783C21.4643 9.73425 21.2592 9.81251 21.0543 9.81251C20.8491 9.81251 20.6442 9.73434 20.4877 9.57783C20.1747 9.26488 20.1747 8.75749 20.4876 8.44463ZM20.4876 30.0426L24.6813 25.8489C24.9944 25.5359 25.5017 25.536 25.8146 25.8489C26.1276 26.1617 26.1276 26.6691 25.8146 26.9821L21.6209 31.1758C21.4643 31.3322 21.2592 31.4105 21.0543 31.4105C20.8491 31.4105 20.6442 31.3323 20.4877 31.1758C20.1747 30.8629 20.1747 30.3556 20.4876 30.0426ZM19.9349 6.58815C19.6219 6.2752 19.6219 5.7679 19.9349 5.45495L21.6245 3.76531C21.9375 3.45237 22.4448 3.45237 22.7578 3.76531C23.0707 4.07826 23.0707 4.58556 22.7578 4.89851L21.0682 6.58815C20.9116 6.74457 20.7066 6.82283 20.5016 6.82283C20.2965 6.82283 20.0914 6.74457 19.9349 6.58815ZM15.9067 17.8684C16.2197 18.1814 16.2197 18.6887 15.9067 19.0016L14.2172 20.6913C14.0607 20.8477 13.8556 20.926 13.6506 20.926C13.4455 20.926 13.2405 20.8478 13.084 20.6913C12.771 20.3783 12.771 19.871 13.084 19.5581L14.7735 17.8684C15.0865 17.5556 15.5937 17.5556 15.9067 17.8684ZM19.9349 28.1861C19.6219 27.8732 19.6219 27.3659 19.9349 27.0529L21.6245 25.3634C21.9375 25.0504 22.4448 25.0505 22.7578 25.3634C23.0707 25.6763 23.0707 26.1836 22.7578 26.4966L21.0682 28.1861C20.9116 28.3426 20.7065 28.4208 20.5016 28.4208C20.2964 28.4208 20.0914 28.3426 19.9349 28.1861Z" fill="white"/>
</svg>
