<svg width="40" height="40" viewBox="0 0 40 40" fill="none" xmlns="http://www.w3.org/2000/svg">
<path d="M0.233358 34.1709L2.49607 31.9082C2.64547 31.7588 2.84818 31.6748 3.0595 31.6748C3.27081 31.6748 3.47352 31.7588 3.62292 31.9082L3.85145 32.1367L11.5965 24.3918V20.3096C11.5965 20.0982 11.6805 19.8956 11.8299 19.7461L30.7801 0.795697C31.2932 0.282629 31.9755 0 32.7012 0C33.4269 0 34.1092 0.282629 34.6223 0.795697L39.2043 5.37769C39.7175 5.89092 40 6.57315 40 7.29888C40 8.02446 39.7175 8.70677 39.2043 9.21992L20.254 28.1702C20.1045 28.3196 19.9019 28.4036 19.6906 28.4036H15.6084L7.8634 36.1485L8.09185 36.377C8.40301 36.6881 8.40301 37.1927 8.09185 37.5039L5.82914 39.7666C5.67974 39.916 5.47703 40 5.26571 40C5.0544 40 4.85169 39.916 4.70229 39.7666L0.233438 35.2978C-0.0777969 34.9866 -0.0777975 34.4821 0.233358 34.1709ZM15.6084 26.81H19.3605L38.0774 8.09299C38.2896 7.88088 38.4064 7.5988 38.4064 7.29888C38.4064 6.9988 38.2896 6.71673 38.0774 6.50462L33.4954 1.92263C33.2833 1.71044 33.0012 1.59363 32.7012 1.59363C32.4012 1.59363 32.1191 1.71044 31.907 1.92263L13.1901 20.6395V24.3916L15.6084 26.81ZM14.1513 27.6067L12.3932 25.8486L4.9783 33.2635L6.73639 35.0216L14.1513 27.6067ZM5.26563 38.0763L6.40149 36.9404L6.17368 36.7127C6.17344 36.7124 6.17312 36.7122 6.17289 36.712L4.20133 34.7404L3.05942 33.5985L1.92356 34.7343L5.26563 38.0763Z" fill="white"/>
<path d="M30.8932 10.8649C31.2044 10.5538 31.7089 10.5538 32.0202 10.8649C32.3313 11.1761 32.3313 11.6806 32.0202 11.9918L18.9529 25.059C18.7973 25.2145 18.5934 25.2924 18.3895 25.2924C18.1856 25.2924 17.9816 25.2145 17.826 25.059C17.5149 24.7478 17.5149 24.2433 17.826 23.9321L30.8932 10.8649Z" fill="white"/>
<path d="M34.4005 7.35757C34.7116 7.0465 35.2162 7.0465 35.5273 7.35757C35.8385 7.66873 35.8385 8.17327 35.5273 8.48451L34.1131 9.89869C33.9574 10.0542 33.7535 10.1321 33.5496 10.1321C33.3457 10.1321 33.1417 10.0542 32.9862 9.89869C32.675 9.58753 32.675 9.08299 32.9862 8.77176L34.4005 7.35757Z" fill="white"/>
<path d="M27.5299 25.1793C30.2319 25.1793 32.4303 27.3776 32.4303 30.0797C32.4303 32.7817 30.2319 34.9801 27.5299 34.9801C24.8278 34.9801 22.6295 32.7817 22.6295 30.0797C22.6295 27.3776 24.8278 25.1793 27.5299 25.1793ZM27.5299 33.3864C29.3532 33.3864 30.8366 31.903 30.8366 30.0797C30.8366 28.2563 29.3532 26.7729 27.5299 26.7729C25.7065 26.7729 24.2231 28.2563 24.2231 30.0797C24.2231 31.903 25.7065 33.3864 27.5299 33.3864Z" fill="white"/>
</svg>
