<svg width="21" height="24" viewBox="0 0 21 24" fill="none" xmlns="http://www.w3.org/2000/svg">
<path fill-rule="evenodd" clip-rule="evenodd" d="M15.865 6.55341C16.2706 6.55341 16.6307 6.77328 16.8573 7.11338L10.2757 13.356L3.75279 7.22674C3.97089 6.82294 4.36425 6.55341 4.81328 6.55341H15.865ZM3.57151 16.9452V8.33446L8.25191 12.7323L3.58116 17.1211C3.5748 17.0635 3.57151 17.0048 3.57151 16.9452ZM3.99956 18.0061C4.2175 18.22 4.50201 18.3495 4.81328 18.3495H15.865C16.1325 18.3495 16.3803 18.2539 16.583 18.0911L11.6096 13.3738L10.7152 14.2221C10.4622 14.462 10.0938 14.463 9.83983 14.2244L8.93198 13.3714L3.99956 18.0061ZM12.2859 12.7323L17.0728 17.2727C17.095 17.1676 17.1068 17.058 17.1068 16.9452V8.15979L12.2859 12.7323Z" fill="white"/>
</svg>
