<svg width="29" height="34" viewBox="0 0 29 34" fill="none" xmlns="http://www.w3.org/2000/svg">
<rect width="29" height="34" fill="white"/>
<path d="M9.6998 27.3767C9.6998 27.5174 9.56532 27.6298 9.39577 27.6298C9.20282 27.6509 9.06835 27.5384 9.06835 27.3767C9.06835 27.2361 9.20282 27.1236 9.37238 27.1236C9.54778 27.1026 9.6998 27.215 9.6998 27.3767ZM7.88145 27.0604C7.84052 27.201 7.95746 27.3627 8.13286 27.4049C8.28488 27.4752 8.46028 27.4049 8.49536 27.2643C8.53044 27.1236 8.41935 26.9619 8.24395 26.8987C8.09194 26.8495 7.92238 26.9198 7.88145 27.0604ZM10.4657 26.9409C10.2962 26.9901 10.1792 27.1237 10.1968 27.2854C10.2143 27.426 10.3663 27.5174 10.5417 27.4681C10.7113 27.4189 10.8282 27.2854 10.8107 27.1447C10.7931 27.0112 10.6353 26.9198 10.4657 26.9409ZM14.3129 0C6.20343 0 0 7.40311 0 17.1544C0 24.9512 4.08105 31.6232 9.91028 33.9714C10.6587 34.1331 10.9218 33.5776 10.9218 33.1207C10.9218 32.6848 10.9042 30.2803 10.9042 28.8039C10.9042 28.8039 6.81149 29.8585 5.95202 26.7089C5.95202 26.7089 5.28548 24.663 4.32661 24.1357C4.32661 24.1357 2.9877 23.0319 4.42016 23.053C4.42016 23.053 5.87601 23.1936 6.67702 24.8669C7.95746 27.5806 10.1032 26.8002 10.9393 26.3362C11.0738 25.2114 11.4538 24.431 11.8748 23.967C8.60645 23.5311 5.30887 22.9616 5.30887 16.1983C5.30887 14.2649 5.75323 13.2947 6.68871 12.0573C6.53669 11.6003 6.03972 9.71614 6.84073 7.28359C8.0627 6.82661 10.875 9.18183 10.875 9.18183C12.0444 8.78812 13.3014 8.58423 14.5468 8.58423C15.7921 8.58423 17.0492 8.78812 18.2185 9.18183C18.2185 9.18183 21.0308 6.81958 22.2528 7.28359C23.0538 9.72317 22.5569 11.6003 22.4048 12.0573C23.3403 13.3017 23.9133 14.2719 23.9133 16.1983C23.9133 22.9827 20.4696 23.524 17.2012 23.967C17.7391 24.5224 18.1952 25.5769 18.1952 27.2291C18.1952 29.5984 18.1776 32.5301 18.1776 33.1066C18.1776 33.5636 18.4466 34.119 19.1891 33.9573C25.0359 31.6232 29 24.9512 29 17.1544C29 7.40311 22.4224 0 14.3129 0ZM5.68306 24.2482C5.60706 24.3185 5.6246 24.4802 5.72399 24.6138C5.81754 24.7263 5.95202 24.7755 6.02802 24.6841C6.10403 24.6138 6.08649 24.4521 5.9871 24.3185C5.89355 24.206 5.75907 24.1568 5.68306 24.2482ZM5.05161 23.6787C5.01069 23.7701 5.06915 23.8826 5.18609 23.9529C5.27964 24.0232 5.39657 24.0021 5.4375 23.9037C5.47843 23.8123 5.41996 23.6998 5.30302 23.6295C5.18609 23.5873 5.09254 23.6084 5.05161 23.6787ZM6.94597 26.1816C6.85242 26.273 6.8875 26.4839 7.02198 26.6175C7.15645 26.7792 7.32601 26.8002 7.40202 26.6878C7.47802 26.5964 7.44294 26.3854 7.32601 26.2519C7.19738 26.0902 7.02198 26.0691 6.94597 26.1816ZM6.27944 25.1481C6.18589 25.2184 6.18589 25.4012 6.27944 25.5629C6.37298 25.7246 6.53085 25.7949 6.60685 25.7246C6.7004 25.6332 6.7004 25.4504 6.60685 25.2887C6.525 25.127 6.37298 25.0567 6.27944 25.1481Z" fill="black"/>
</svg>
