<svg width="29" height="34" viewBox="0 0 29 34" fill="none" xmlns="http://www.w3.org/2000/svg">
<path d="M0 4.76C0 2.13112 1.81772 0 4.06 0H24.94C27.1823 0 29 2.13112 29 4.76V29.24C29 31.8689 27.1823 34 24.94 34H4.06C1.81772 34 0 31.8689 0 29.24V4.76Z" fill="#0077B5"/>
<path d="M10.44 9.18C10.44 10.87 9.27146 12.24 7.83 12.24C6.38854 12.24 5.22 10.87 5.22 9.18C5.22 7.49001 6.38854 6.12 7.83 6.12C9.27146 6.12 10.44 7.49001 10.44 9.18Z" fill="white"/>
<path d="M5.8 14.28C5.8 13.9044 6.05967 13.6 6.38 13.6H9.28C9.60032 13.6 9.86 13.9044 9.86 14.28V27.2C9.86 27.5756 9.60032 27.88 9.28 27.88H6.38C6.05967 27.88 5.8 27.5756 5.8 27.2V14.28Z" fill="white"/>
<path d="M12.18 13.6L14.79 13.6C15.1103 13.6 15.37 13.9045 15.37 14.28V14.96C16.53 13.26 18.6567 13.1467 19.72 13.26C23.0349 13.6133 23.5867 17.5667 23.49 19.72L23.49 27.2C23.49 27.5756 23.2303 27.88 22.91 27.88L20.3 27.88C19.9797 27.88 19.72 27.5756 19.72 27.2V19.72C19.6233 18.8133 19.082 17 17.69 17C16.298 17 15.4667 19.04 15.37 19.72V27.2C15.37 27.5756 15.1103 27.88 14.79 27.88L12.18 27.88C11.8597 27.88 11.6 27.5756 11.6 27.2V14.28C11.6 13.9044 11.8597 13.6 12.18 13.6Z" fill="white"/>
</svg>
