<svg width="40" height="40" viewBox="0 0 40 40" fill="none" xmlns="http://www.w3.org/2000/svg">
<path d="M20 0C8.97241 0 0 8.97172 0 20C0 31.0283 8.97241 40 20 40C31.0276 40 40 31.0283 40 20C40 8.97172 31.0276 0 20 0ZM20 38.6207C9.73241 38.6207 1.37931 30.2676 1.37931 20C1.37931 9.73241 9.73241 1.37931 20 1.37931C30.2676 1.37931 38.6207 9.73241 38.6207 20C38.6207 30.2676 30.2676 38.6207 20 38.6207Z" fill="white"/>
<path d="M30.3407 13.2427C30.3428 11.1924 30.3448 9.25584 30.3103 7.34481C30.2993 6.7855 29.9524 6.43101 29.4048 6.4186C29.0752 6.40826 28.7476 6.43239 28.4186 6.45584L28.251 6.46757C26.4634 6.58481 24.7152 6.71101 22.9703 6.96619C19.8172 7.42688 17.0138 8.15722 14.3993 9.20067C14.0697 9.33239 13.8662 9.5986 13.8248 9.94826C13.7959 10.1924 13.7945 10.4365 13.7945 10.6979C13.7931 15.3745 13.7917 20.051 13.7959 24.7434C12.2462 24.4496 10.7945 24.7814 9.46689 25.7317C8.65517 26.3124 8.1 27.0483 7.81586 27.9172C7.36827 29.2814 7.57034 30.5027 8.41724 31.5476C8.83379 32.0614 9.37724 32.3241 9.8531 32.5296C10.6131 32.8579 11.3655 33.0214 12.1083 33.0214C13.2241 33.0214 14.3172 32.6517 15.3759 31.9138C16.5517 31.0945 17.191 29.9096 17.2248 28.4869C17.2407 27.8062 17.2414 27.1255 17.2421 26.4448L17.2434 25.86C17.2469 24.7889 17.2434 23.7179 17.2407 22.6462C17.2345 20.7 17.2283 18.6876 17.2655 16.7055C17.2655 16.6938 17.2662 16.682 17.2662 16.671C17.2772 16.6683 17.2883 16.6648 17.3007 16.6614C19.3448 16.0655 21.3979 15.5979 23.4034 15.2724C24.7407 15.0552 25.8614 14.9248 26.8876 14.8676C26.8834 17.2303 26.8828 19.5924 26.8883 21.9545C26.6497 21.9062 26.3952 21.871 26.1283 21.8634C24.329 21.8103 22.8745 22.4152 21.7634 23.6565C20.9241 24.5945 20.571 25.7027 20.7434 26.8614C20.9531 28.2814 21.8062 29.2924 23.2786 29.8655C24.8172 30.4648 26.391 30.3207 27.9565 29.4352C29.5193 28.5503 30.3448 27.1414 30.3448 25.3614V17.3041C30.3379 15.8593 30.3393 14.5186 30.3407 13.2427ZM28.9655 25.3614C28.9655 26.6517 28.4131 27.591 27.2772 28.2345C26.0731 28.9145 24.9297 29.0289 23.7793 28.58C22.7745 28.1889 22.2434 27.5779 22.1076 26.6586C21.9952 25.8972 22.2186 25.2158 22.791 24.5752C23.6303 23.6372 24.7028 23.1993 26.0876 23.2407C26.4628 23.2517 26.8379 23.3496 27.1552 23.4434C27.2703 23.4772 27.6214 23.5814 27.9434 23.342C28.0924 23.231 28.2697 23.0145 28.2697 22.6138C28.2614 19.8676 28.2621 17.1214 28.2683 14.3758C28.2697 14.0924 28.1834 13.8655 28.0124 13.6993C27.8421 13.5345 27.609 13.4627 27.3359 13.4655C26.1179 13.5062 24.7986 13.6476 23.1834 13.9096C21.1228 14.2441 19.0138 14.7241 16.9097 15.3379C16.1034 15.5724 15.9028 15.8358 15.8876 16.6855C15.8503 18.6758 15.8565 20.6958 15.8628 22.6489C15.8655 23.7172 15.869 24.7855 15.8655 25.8538L15.8641 26.4414C15.8634 27.1117 15.8628 27.782 15.8469 28.4531C15.8241 29.4324 15.4014 30.2158 14.5897 30.7814C13.2248 31.7317 11.8538 31.8896 10.4014 31.2621C9.97517 31.0779 9.68965 30.9234 9.49103 30.6772C8.94276 30.0014 8.82758 29.2607 9.12827 28.3448C9.32207 27.7517 9.69655 27.2634 10.2717 26.8517C11.0497 26.2952 11.8607 26.0186 12.7248 26.0186C13.1579 26.0186 13.6034 26.0876 14.0655 26.2255C14.1821 26.2607 14.5393 26.3662 14.8579 26.1283C15.1779 25.8896 15.1779 25.5165 15.1779 25.3931C15.171 20.4965 15.1724 15.5972 15.1738 10.6814C15.1738 10.5793 15.1731 10.4786 15.1765 10.3765C17.6131 9.42963 20.2317 8.75929 23.1697 8.33032C24.8641 8.08274 26.5828 7.9586 28.3421 7.84343L28.5145 7.8317C28.6559 7.82205 28.7972 7.8117 28.9386 7.80481C28.9648 9.56274 28.9634 11.3538 28.9614 13.2414C28.96 14.5193 28.9586 15.8627 28.9655 17.3076C28.9655 17.3076 28.9655 25.3614 28.9655 25.3614Z" fill="white"/>
</svg>
