<svg width="24" height="24" viewBox="0 0 24 24" fill="none" xmlns="http://www.w3.org/2000/svg">
<path d="M7.07612 9.83618C8.41595 13.603 9.8058 15.1041 13.3441 16.6988L11.8074 18.917C7.74443 16.9247 5.72351 13.5563 4.77293 10.9263L7.07612 9.83618Z" fill="white"/>
<path d="M8.2291 4.63602C8.95109 4.63564 9.49588 5.2527 9.44196 5.94908C9.3571 7.04495 9.4342 7.83608 9.6496 8.81714C9.76792 9.35604 9.48831 9.90198 9.04747 10.2527C8.45329 10.7254 7.9977 11.3288 7.63534 11.8484C7.1331 12.5685 5.42184 12.5107 5.04863 11.723C4.28163 10.1041 3.77456 7.12486 4.92416 5.1172C5.10474 4.80185 5.46514 4.63746 5.83744 4.63726L8.2291 4.63602Z" fill="white"/>
<path d="M19.1042 16.5485C19.1904 15.853 18.6243 15.2543 17.906 15.2229C16.7755 15.1735 15.9759 15.0045 14.9985 14.6796C14.4616 14.5011 13.8703 14.7052 13.4593 15.0879C12.9054 15.6038 12.2343 15.9705 11.6601 16.2574C10.8642 16.6551 10.7199 18.3108 11.4808 18.7646C13.0446 19.6973 16.0302 20.5424 18.2193 19.6751C18.5632 19.5388 18.7741 19.2113 18.8186 18.8526L19.1042 16.5485Z" fill="white"/>
</svg>
