<svg width="40" height="40" viewBox="0 0 40 40" fill="none" xmlns="http://www.w3.org/2000/svg">
<path d="M13.2547 11.0058L12.7993 8.88904C11.8141 9.21618 10.8343 9.62184 9.8872 10.0944L10.5444 12.1275C11.4265 11.6876 12.338 11.3104 13.2547 11.0058Z" fill="white"/>
<path d="M7.96187 13.6461L7.11333 11.7255C6.2196 12.3353 5.34573 13.0192 4.51573 13.7586L5.54387 15.5386C6.3168 14.8504 7.13013 14.2136 7.96187 13.6461Z" fill="white"/>
<path d="M0 18.9102L1.34053 20.3336C1.95773 19.4365 2.62587 18.577 3.3256 17.7791L2.1332 16.1652C1.38107 17.0226 0.663333 17.9459 0 18.9102Z" fill="white"/>
<path d="M38.0619 18.0285L36.7633 19.5105C37.4064 20.3803 38.0131 21.3074 38.5671 22.2655L40 20.9882C39.4045 19.9582 38.7529 18.9624 38.0619 18.0285Z" fill="white"/>
<path d="M32.424 14.907C33.2149 15.5588 33.9832 16.2785 34.706 17.0453L35.8511 15.3792C35.0743 14.5548 34.2489 13.7815 33.398 13.0811L32.424 14.907Z" fill="white"/>
<path d="M30.7381 11.1691C29.8269 10.6034 28.8771 10.1004 27.9133 9.67352L27.3213 11.7373C28.2181 12.1341 29.1021 12.6022 29.9499 13.1288L30.7381 11.1691Z" fill="white"/>
<path d="M14.7887 12.646L15.9872 12.6466L16.9863 10.7644L18.91 10.7808L17.6988 15.9688V16.0915C17.6988 16.7466 18.1279 17.28 18.6552 17.28H20.3928L23.1503 10.9269L25.2815 11.0146C26.3845 11.0146 27.2821 9.93921 27.2821 8.61821C27.2827 7.96906 27.0696 7.36098 26.6825 6.90646C26.3069 6.46536 25.8099 6.22186 25.2605 6.22186C25.2596 6.22186 25.2591 6.22186 25.2588 6.22186L23.132 6.31015L20.3933 0.000662522L18.6528 0C18.1267 0.00182207 17.6988 0.535357 17.6988 1.18882V1.31106L18.9003 6.45757L16.9684 6.47844L15.9867 4.63335L14.7889 4.63368C14.2969 4.63368 13.8969 5.13061 13.8969 5.7415V11.5383C13.8969 12.1494 14.2965 12.646 14.7887 12.646ZM15.2839 6.43985H15.2844L16.2267 8.21073L20.7436 8.1622L19.2403 1.72417H19.5648L22.3191 8.06911L25.2823 7.94603C25.4531 7.94603 25.6117 8.02206 25.7293 8.15971C25.836 8.28494 25.8945 8.44743 25.8945 8.61788C25.8945 8.98925 25.6195 9.29088 25.3047 9.29121L22.3373 9.1693L19.5645 15.5563H19.24L20.7533 9.0734L16.2427 9.0343L15.2839 10.8391V6.43985Z" fill="white"/>
<path d="M22.8407 21.0964C21.6864 20.7696 20.5064 20.6038 19.3328 20.6038C11.9512 20.6038 5.64839 26.8578 4.00626 35.8121C3.75119 37.2039 3.62359 38.6058 3.61386 39.9998H5.37759C5.38519 39.1282 5.44426 38.253 5.55893 37.3797C6.55066 37.6956 7.57226 38.2023 7.90053 38.5351C7.88519 38.6763 7.86759 38.8195 7.84973 38.9637C7.80999 39.2833 7.76719 39.6367 7.74946 40H9.51879C9.53733 39.7517 9.56879 39.49 9.59253 39.2975C9.62519 39.0335 9.65746 38.7706 9.67773 38.5165C9.78733 37.1407 8.53146 36.0405 5.94973 35.2434C7.36986 29.2256 11.2093 24.7491 15.9711 23.2994C15.7087 23.9297 15.4973 24.7095 15.4091 25.6961C15.3661 26.1796 15.3103 26.6163 15.2612 27.0007C15.0637 28.5511 14.8595 30.1544 16.5471 31.0876C17.4935 31.6127 18.1556 31.6997 18.6873 31.7686C18.946 31.8022 19.174 31.8322 19.4163 31.9092C19.5017 32.2652 19.4585 33.1349 19.4412 33.4826C19.4192 33.9241 19.3968 34.3746 19.5053 34.7427C19.6132 35.4949 20.0608 37.8773 21.546 39.9992H24.2C21.6488 37.93 21.2424 34.3925 21.2256 34.237L21.1895 33.8762C21.1929 33.7907 21.1975 33.6973 21.2015 33.6173C21.2581 32.477 21.364 30.3533 20.0555 29.8567C19.6035 29.6854 19.2149 29.6351 18.8721 29.5902C18.3807 29.5259 17.9565 29.4704 17.2653 29.0875C16.8129 28.837 16.8129 28.837 17.0032 27.3436C17.0552 26.9349 17.1143 26.4713 17.1616 25.9368C17.2963 24.4284 17.8079 23.4725 18.27 22.8462C18.6212 22.8138 18.9753 22.794 19.3328 22.794C20.3747 22.794 21.4231 22.9411 22.4492 23.2315C26.0881 24.2615 29.1867 26.9898 31.1732 30.9137C32.5196 33.5734 33.2441 36.5667 33.3144 39.6273C33.1677 39.7467 32.9852 39.8726 32.7889 39.9993H35.0788C35.0624 36.4006 34.2467 32.8701 32.666 29.7477C30.4284 25.329 26.9391 22.2564 22.8407 21.0964Z" fill="white"/>
</svg>
